<svg id="Layer_1" xmlns="http://www.w3.org/2000/svg" viewBox="0 0 61 7">
  <path class="st0" d="M60.5 3H48V1.5c0-.827-.673-1.5-1.5-1.5h-7a.5.5 0 0 0 0 1h.5v5h-.5a.5.5 0 0 0 0 1h7c.827 0 1.5-.673 1.5-1.5V4h12.5a.5.5 0 0 0 0-1zM41 1h2v5h-2V1zM23.5 1H20V0h-5.5c-.827 0-1.5.673-1.5 1.5V3H.5a.5.5 0 0 0 0 1H13v1.5c0 .827.673 1.5 1.5 1.5H20V6h3.5a.5.5 0 0 0 .5-.5v-4a.5.5 0 0 0-.5-.5zM23 5h-3V2h3v3zM33.813 1.187a.5.5 0 0 0-.707 0L31.48 2.813l-1.626-1.626a.5.5 0 0 0-.707.707l1.626 1.626-1.626 1.626a.5.5 0 0 0 .707.708l1.626-1.626 1.626 1.626a.502.502 0 0 0 .708 0 .5.5 0 0 0 0-.707L32.187 3.52l1.626-1.626a.499.499 0 0 0 0-.707z" fill="#FFF"/>
</svg>
