<?xml version="1.0" encoding="UTF-8"?>
<svg width="20px" height="20px" viewBox="0 0 20 20" version="1.1" xmlns="http://www.w3.org/2000/svg" xmlns:xlink="http://www.w3.org/1999/xlink">
    <!-- Generator: Sketch 48.2 (47327) - http://www.bohemiancoding.com/sketch -->
    <title>placeholder</title>
    <desc>Created with Sketch.</desc>
    <defs></defs>
    <g id="Page-1" stroke="none" stroke-width="1" fill="none" fill-rule="evenodd">
        <g id="placeholder">
            <rect id="Rectangle" stroke="#fff" x="0.5" y="0.5" width="19" height="19"></rect>
            <path d="M5.379,9.344 L5.119,7.238 L5.184,7.173 C6.835,7.108 7.589,6.575 7.589,5.691 C7.589,4.963 7.03,4.456 6.094,4.456 C5.275,4.456 4.599,4.82 3.975,5.483 L3,4.443 C3.754,3.585 4.729,3 6.133,3 C7.953,3 9.175,4.014 9.175,5.665 C9.175,7.303 8.005,8.044 6.562,8.291 L6.432,9.344 L5.379,9.344 Z M5.002,12.217 L5.002,10.436 L6.744,10.436 L6.744,12.217 L5.002,12.217 Z" id="?" fill="#fff"></path>
            <path d="M13.1989997,14.344 L12.9389997,12.238 L13.0039997,12.173 C14.6549997,12.108 15.4089997,11.575 15.4089997,10.691 C15.4089997,9.963 14.8499997,9.456 13.9139997,9.456 C13.0949997,9.456 12.4189997,9.82 11.7949997,10.483 L10.8199997,9.443 C11.5739997,8.585 12.5489997,8 13.9529997,8 C15.7729997,8 16.9949997,9.014 16.9949997,10.665 C16.9949997,12.303 15.8249997,13.044 14.3819997,13.291 L14.2519997,14.344 L13.1989997,14.344 Z M12.8219997,17.217 L12.8219997,15.436 L14.5639997,15.436 L14.5639997,17.217 L12.8219997,17.217 Z" id="?" fill="#fff"></path>
        </g>
    </g>
</svg>
