<svg xmlns="http://www.w3.org/2000/svg" width="15" height="15">
  <g fill="#FFF" fill-rule="nonzero">
    <path d="M8.5 14h-2c-.28 0-.5.22-.5.5s.22.5.5.5h2c.28 0 .5-.22.5-.5s-.22-.5-.5-.5zM13.58075 12.2l-1.01-1.44c-.37-.47-.57-1.02-.57-1.59V5.84c0-2.08-1.76999997-3.85-3.99999997-4.07V.5c0-.28-.22-.5-.5-.5s-.5.22-.5.5v1.27c-1.08.1-2.08.53-2.83 1.24-.76.72-1.17 1.66-1.17 2.64v3.53c0 .57-.2 1.12-.58 1.61l-.99 1.42c-.11.15-.12.35-.03.52.09.17.26.27.44.27H13.17075c.19 0 .36-.1.44-.27.09-.17.07-.37-.03-.53z"/>
  </g>
</svg>
