<svg xmlns="http://www.w3.org/2000/svg" width="15" height="15">
  <path fill="#FFF" fill-rule="evenodd" d="M5.52538559 9.41803613v-.6789358h-1.0174976v-.78947369h1.0174976V3.86842226h2.83263158c1.67289473 0 2.73000003.95447368 2.73000003 2.42210526 0 1.61131579-1.29315792 2.45289474-2.87368424 2.45289474H6.78775401v.67461387h2.68271421v.78947367H6.78775401v.845123H5.52538559v-.845123h-1.0174976v-.78947367h1.0174976zM7.5 15C3.35786438 15 0 11.6421356 0 7.5 0 3.35786438 3.35786438 0 7.5 0 11.6421356 0 15 3.35786438 15 7.5c0 4.1421356-3.3578644 7.5-7.5 7.5zm0-.7894737c3.7061213 0 6.7105263-3.004405 6.7105263-6.7105263 0-3.70612135-3.004405-6.71052632-6.7105263-6.71052632C3.79387865.78947368.78947368 3.79387865.78947368 7.5c0 3.7061213 3.00440497 6.7105263 6.71052632 6.7105263zm-.71224599-6.60631457h1.46763158c.95447369 0 1.54973684-.53368421 1.54973684-1.30342105 0-.84157895-.60552631-1.28289474-1.54973684-1.28289474H6.78775401v2.58631579z"/>
</svg>
