<svg xmlns="http://www.w3.org/2000/svg" width="25" height="25">
  <path fill="none" fill-rule="evenodd" stroke="#FFF" stroke-linecap="round" stroke-linejoin="round" stroke-width="2" d="M13.0059591 2c-1.1551444 0-2.0178356.20352544-2.0178356.20352544-1.73546692.50331291-8.31520605 7.36175355-8.75892818 8.75709466 0 0-.22919532.8874442-.22919532 2.0407551 0 1.1533108.20352544 2.0150852.20352544 2.0150852.30528816 1.0515481.6949202 1.6337042 1.67587615 1.6337042l4.42897029-.0146685c.22094428 0 .50147935.1008459.71325582.2952036.21269326.1961912.30528816.5262324.30528816.7471767v4.4078843c0 .980956.63899655 1.4118432 1.62361964 1.6492895 0 0 .888361.2649498 2.0435054.2649498 1.1542276 0 2.0178356-.2392799 2.0178356-.2392799 1.0524649-.3052882 1.6492895-.6940034 1.6492895-1.6749594v-4.2914531c0-.2466141.008251-.6692503.2456974-.9158645.2392799-.2475309.6206609-.2282785.8746093-.2282785l4.2419469.0055007c.9818727 0 1.509022-.6389965 1.7473851-1.6227028 0 0 .2291953-.8865275.2291953-2.0398384 0-1.1542276-.2997875-2.016002-.2997875-2.016002-.3062049-1.05154807-.5986581-1.66120761-1.5805309-1.66120761h-4.3134558c-.2466142 0-.6692503-.00825103-.9167813-.24569738-.2475309-.23836313-.2282785-.61974413-.2282785-.87369254l.0155853-4.31895654c0-.98003917-.7471768-1.41092637-1.7317998-1.64837271 0 0-.7847648-.22919532-1.9389924-.22919532z"/>
</svg>
