<svg xmlns="http://www.w3.org/2000/svg" width="25" height="25">
  <path fill="#FFF" fill-rule="evenodd" d="M5.83624058 16.4556083c.67632811-.9134928-.39211046-1.0538339-.70230231-.8394948.11338736-1.0104558.39460798-1.9479342-.19180945-2.6057512.36363875.1296242.72627849.2592483 1.08991724.3888724-.45954347-1.4386237-.26873303-2.9833963.70479983-4.14439978-.20329804-.30007475-.36263974-.50828989-.64585838-.9532987-1.59241804-.13268612-2.60091616 1.03393103-3.26425718 2.57206928.55045316-1.82851671 3.15986089-3.98415575 2.96405541-4.76904516 1.56294731-.34549423 1.73427711-1.88363251 2.4615546-3.48913451 0 0-.00949057.03061988-.02247766.07603935-.00349653.01224795-.00699306.0244959-.01048958.03623352-.01848164.06328107-.04145882.14187208-.06193847.21229779-.07792259.26843421-.04645385.16075433 0 0 .01598412-.05358478.03696328-.12605181.06193847-.21229779.00399603-.01326861.00749255-.0244959.01048958-.03623352.00799206-.02602689.0139861-.04695047.02247766-.07603935-.38661592 1.32686116-.89111473 2.63024708-1.38712198 3.91934372 1.34616268.32559132 2.80821023.26077925 3.91011554-.58279824C8.66243295 7.66107054 8.20788451 7.02060487 6.89119256 9.8070133c-.15734369.3327359-.33366853.72416-.3836189 1.1737618-.30269929 2.7108794.96254377.9788153 1.79521657 2.412846-.79970555-.4695048-1.99202106 1.0987431-1.85665554 1.8627089.17432682.9839186.48601718 1.8759775.94755866 2.49603 1.49601381 2.0096843 4.21731035 2.6067718 6.92162385 1.8035105 4.4001287-1.3074686 4.0839428-1.5585516 6.8417032-4.589919-2.2562586 6.1933796-13.95713451 7.5049309-15.32077982 1.4896568M20.515158 17.9467962c.6758287-.2077049 1.783728-1.8856739 1.443566-2.6675013-.4440589-1.0206624-1.644866-1.1237493-1.7392722-.4817527-.0589414.3995894.0404598 1.1926441-.4840191 1.3141029-.3321701-.8155093-1.0474595-.1760643-1.445564.1561614-.4085941.3409012-.9735328.4393951-1.3626463.7690691-.1183824.1000249-.005994.2694549-.0494509.3995893-.0389612.1229899-.1723288.1229899-.274727.100025-.3701323-.0811427-.3336686-.0658328-.6343698.147996-1.7987131 1.2778694-4.8691628 1.6881757-6.62841513.1041076-.56044324-.5052279-.93557057-1.1911131-1.11389342-1.9239487-.09390671-.3853001-.30219979-1.5646755.12087991-1.836682.20379754-.1301345.46653653.8502118.71478991.8343915.53546804-.0347025.67383059-1.9601822.6888157-2.3398686.1048958-2.63943305-1.08042666-.3873414-.94606015.0525641-.15634468-.2822132.18981144-.9379888-.26323849-1.1028258-.08091961-.0295992-.49900427.0959423-.5154879.0668534-.13886205-.2485313.75275219-1.3197165.92807802-1.519256.34715512-.397548.80220306-.76141416 1.34266615-.81295761.8976083-.08726664 1.1718359.61494911 1.7362751 1.11354271.4055971.3582525.9245815.6021908 1.4185907.8083646.1993021.0836944 1.0899173.2122978 1.1923156.3261017.2182831-.0352129-.5554482-.7726415-.6218822-.8583771-.4500529-.5802466-.8261793-1.22530526-1.1528548-1.88261186-.1718293-.34549424-.3216804-.61035614-.1918094-.93441646-.3386636.18116758 1.4265828-.77519311.4355673-1.00535249-1.5329771-.35672152-.1863149-1.79432454.8346708-1.43964435 1.0134932.35161821.3326695.87521803.8056996 1.79279355.2612405.5067589.5459576 1.25337346.9495567 1.6611281.6068971.61290779.6128911-.3516182.6808236-.71599469.331171 1.27633837 1.259249 2.5429804 2.713804 2.2980215.3951075-.0668534.853652-.251083 1.0814257-.60474253.1518492-.23577302.3746278-1.03852402-.0994012-.4904283-.2952068.34039092-.7977076.50165558-1.2317764.37713477.0679326-.05460544.7392656-.56034367.5369666-.73283562-.2077936-.17606427-.7182864.15360969-.923083.19596718-.9325735.19086387-1.526983-.84153617-1.717294-1.605502.3326696.03521286.923083.55575069 1.0314753-.03776451.0999008-.54401307-.4385643-.98647023-.7033013-1.40749348-.1708303-.27200654-2.0434699-3.44728735-2.5364802-3.01095416-.0154846.05205378-.0104895.10155591.0149852.1505477-.5534502-.27455819-1.1543533-.51033121-1.7697419-.58994288-.2427589-.03215086-.8166887-.09083895-.4070956.22964905-.3266755-.03623352-2.49602036-.02245458-1.6153952.33885992-.2537479.06123975-2.08542827 1.00433183-1.36414482 1.2212226.94456162.28374415-.61089312.88848664-.96204427 1.06659223-.31418788-2.31792437 2.07344019-3.71316991 4.03399249-4.11633156.0509494-.01020663.126874-.4281679-.8511544-.34294258-1.1913165.10359724-2.08043326.23169037-3.19532569.66904422C3.6688937 3.54473897.80923458 8.15711248 1.03451078 13.1757096c.10839232 2.4133563.91608993 4.814975 2.37264294 6.7389237.67383059.8900176 1.09740979 1.1962164 2.02848483 1.8075932.24725437.163306 1.06793908.1730023 1.00999664.1275828-3.48803487-2.6996521-5.31072415-8.4260787-1.71579547-11.7820168-.49750576.6220938-.76174326 1.4682229-.96604031 2.2219821-.10489579.3853001-.7013033 2.6368814.1713298 1.9994777-.13486602.9094103-.04495534 1.8775086.21828315 2.7588506.10339728.3460045.23326826.7706001.49350973 1.0344414.11238835.1143141.45255042-.5103313.57892488-.5634057.47203106.9885116 1.14436315 1.9086387 1.90960293 2.6858732.15184915.1546303.3436586.3847897.55394969.4633807.14935163.0551158.05644393-.5940255.24825338-.6777198.9535527.7246703 1.56294731 1.5309936 2.79272563 1.8550539.4410618.1153349.9095964.1816779 1.3656433.1434031.6528514-.0551158.0544459-.2577173.0709295-.6175008 1.0889183-.0683844 2.1413727.0791014 3.236285-.1030869.3861164-.0643017.8042011-.1367687 1.1593483-.3118124.3531491-.1745332-.1538472-.305178-.254747-.476139-.1183824-.1056385 4.1733541-1.1227286 3.2492721-2.081641.3141879-.0969629 1.3386701.312833 1.5444657.0219442-.0779226-.235773-.5010023-.2122977-.5864175-.4740976"/>
</svg>
