<?xml version="1.0" encoding="UTF-8"?>
<svg width="25px" height="25px" viewBox="0 0 25 25" version="1.1" xmlns="http://www.w3.org/2000/svg" xmlns:xlink="http://www.w3.org/1999/xlink">
    <!-- Generator: Sketch 48.2 (47327) - http://www.bohemiancoding.com/sketch -->
    <title>kuf</title>
    <desc>Created with Sketch.</desc>
    <defs></defs>
    <g id="Page-1" stroke="none" stroke-width="1" fill="none" fill-rule="evenodd">
        <g id="kuf" fill="#FFFFFF">
            <path d="M12.5,21.507212 C12.6456836,21.1745315 12.8072286,20.8396766 12.9094245,20.4987335 C13.1777433,19.5998438 13.1516507,18.6692082 13.1829618,17.7468352 C13.2903763,14.5700627 13.3986605,11.3928553 13.4786778,8.21477815 C13.4917241,7.68683813 13.689158,7.30414685 14.062282,6.97581512 C14.1757848,6.87622841 14.294506,6.7822951 14.4067042,6.68966641 C14.1179462,6.54267817 13.8422345,6.4239569 13.5887016,6.268706 C13.210359,6.03735172 13.0150995,5.70641074 13.0264063,5.23717904 C13.0472804,4.36568662 13.0324946,3.49332444 13.0324946,2.62096227 C13.0320597,2.12259384 13.0764171,2.06692966 13.5904411,2.05040435 C14.1870916,2.03126979 18.8137422,1.98517288 19.0746681,2.00474232 C19.2399211,2.01691886 19.4064788,2.00735158 19.6408772,2.00735158 C19.606522,2.19260895 19.6300053,2.39569626 19.546509,2.4596231 C19.2768856,2.66749405 18.9863882,2.90232733 18.6684935,2.97712609 C18.3758216,3.04627144 17.6430548,3.69249786 17.4490999,3.81469814 C17.2647123,3.93167991 17.1668651,4.07518914 17.1651255,4.28436472 C17.1620814,4.62574274 17.1733882,4.96755564 17.1686046,5.30893366 C17.1586024,6.09171128 17.1538188,6.87492378 17.1268564,7.65726653 C17.0911965,8.68357497 17.0190071,9.70814391 16.994654,10.7340175 C16.9720404,11.6924852 16.9533407,12.6535622 17.0046561,13.6102904 C17.047274,14.4143769 17.1533839,18.9273907 17.1533839,19.3197834 C17.1533839,19.7121761 17.2120922,19.8946901 17.4312699,20.1151724 C17.5986974,20.282165 17.7622109,20.4543761 17.9405103,20.6091921 C18.0722778,20.7231297 18.2140476,20.873597 18.3706031,20.9014291 C18.9398564,21.0040599 19.3373335,21.4289342 19.8452692,21.6402842 C19.9105006,21.6672465 20,21.7549328 20,21.8259764 C20,22.2795526 19.9223702,22.2795526 19.5599902,22.2795526 C19.5399497,22.2795526 17.1866197,22.2822938 12.5,22.2877762 C7.81338034,22.2822938 5.46005027,22.2795526 5.4400098,22.2795526 C5.07762981,22.2795526 5,22.2795526 5,21.8259764 C5,21.7549328 5.08949937,21.6672465 5.15473084,21.6402842 C5.66266654,21.4289342 6.06014363,21.0040599 6.62939691,20.9014291 C6.78595243,20.873597 6.92772216,20.7231297 7.05948973,20.6091921 C7.23778908,20.4543761 7.40130262,20.282165 7.56873006,20.1151724 C7.7879078,19.8946901 7.84661612,19.7121761 7.84661612,19.3197834 C7.84661612,18.9273907 7.95272597,14.4143769 7.99534387,13.6102904 C8.04665929,12.6535622 8.0279596,11.6924852 8.00534602,10.7340175 C7.98099294,9.70814391 7.90880345,8.68357497 7.87314358,7.65726653 C7.84618124,6.87492378 7.8413976,6.09171128 7.83139544,5.30893366 C7.8266118,4.96755564 7.83791859,4.62574274 7.83487445,4.28436472 C7.83313495,4.07518914 7.73528774,3.93167991 7.55090013,3.81469814 C7.35694522,3.69249786 6.62417839,3.04627144 6.33150654,2.97712609 C6.01361184,2.90232733 5.72311437,2.66749405 5.45349097,2.4596231 C5.36999469,2.39569626 5.39347801,2.19260895 5.35912277,2.00735158 C5.59352119,2.00735158 5.76007887,2.01691886 5.92533192,2.00474232 C6.1862578,1.98517288 10.8129084,2.03126979 11.4095589,2.05040435 C11.9235829,2.06692966 11.9679403,2.12259384 11.9675054,2.62096227 C11.9675054,3.49332444 11.9527196,4.36568662 11.9735937,5.23717904 C11.9849005,5.70641074 11.789641,6.03735172 11.4112984,6.268706 C11.1577655,6.4239569 10.8820538,6.54267817 10.5932958,6.68966641 C10.705494,6.7822951 10.8242152,6.87622841 10.937718,6.97581512 C11.310842,7.30414685 11.5082759,7.68683813 11.5213222,8.21477815 C11.6013395,11.3928553 11.7096237,14.5700627 11.8170382,17.7468352 C11.8483493,18.6692082 11.8222567,19.5998438 12.0905755,20.4987335 C12.1927714,20.8396766 12.3543164,21.1745315 12.5,21.507212 Z" id="Combined-Shape"></path>
        </g>
    </g>
</svg>