<?xml version="1.0" encoding="UTF-8"?>
<svg width="25px" height="25px" viewBox="0 0 25 25" version="1.1" xmlns="http://www.w3.org/2000/svg" xmlns:xlink="http://www.w3.org/1999/xlink">
    <!-- Generator: Sketch 48.2 (47327) - http://www.bohemiancoding.com/sketch -->
    <title>pb</title>
    <desc>Created with Sketch.</desc>
    <defs></defs>
    <g id="Page-1" stroke="none" stroke-width="1" fill="none" fill-rule="evenodd">
        <g id="pb" fill="#FFFFFF">
            <path d="M20.0596724,3.00556764 C20.0596724,3.00556764 22.5702925,2.79840611 21.8798514,4.91139006 C20.6664106,8.35022193 19.0763429,8.95095147 18.0930135,9.34455483 C17.8013749,9.46130639 17.1323595,9.64361136 16.3355402,9.70393182 L11.8374426,9.75887789 C11.8374426,9.75887789 11.1923525,9.70524006 10.8541489,10.3182034 C10.4925199,11.0005035 8.63641724,14.5027673 8.63641724,14.5027673 C8.63641724,14.5027673 8.36531156,15.0045303 7.33927367,14.9999691 L1,14.9999691 C1,14.9999691 1.21479198,14.4281623 1.46029403,14.3370451 C1.939764,14.1591245 2.6319191,14.4820829 3.99180407,13.5498738 C4.66131942,13.0319523 4.93328213,12.5140661 5.14250344,11.5818569 C5.2659508,11.0317598 7.00453385,10.6835205 7.33927367,9.84175665 C7.67401349,8.99999278 6.92086675,8.4745047 7.02545955,8.26734317 C7.06031192,8.19828933 7.2021139,8.11544593 7.37569724,8.03564331 C7.81742239,7.83258329 8.29821361,7.72629765 8.78507543,7.71441742 L14.9966166,7.56301519 C14.9966166,7.56301519 15.8543919,7.52157581 16.5239072,7.23157089 C17.1933868,6.94153061 17.5281267,6.67224537 17.8210508,6.03007645 C18.1139392,5.38787218 17.0050912,5.49143527 17.0050912,5.49143527 L9.36867398,5.47071558 C9.36867398,5.47071558 8.13259347,5.54722992 7.46625626,4.68785785 C7.38969533,4.58913879 7.32566839,4.48207528 7.2736041,4.36938988 C7.27288991,4.36779877 7.27217572,4.36624303 7.27146154,4.36465193 C7.21593344,4.24333921 7.18286654,4.11428313 7.17122528,3.98310558 C7.15587024,3.80992293 7.18315222,3.63560882 7.24100143,3.47151313 L7.38469601,3.06404949 L20.0596724,3.00556764 Z" id="Fill-1"></path>
            <path d="M16.9111214,17.6013845 C16.7109382,18.3137015 15.9871315,19.2533861 15.9871315,19.2533861 C15.9871315,19.2533861 15.5405393,19.6171327 14.8783436,19.6171327 L11.2469387,19.6171327 C11.104932,19.6171327 11.0131814,19.4692679 11.0781218,19.3449608 L12.2682166,17.0653532 C12.3295823,16.9478064 12.4526291,16.8738912 12.5869256,16.8738912 L16.325922,16.8738912 C16.325922,16.8738912 17.1113047,16.889033 16.9111214,17.6013845 M22.3831815,10.0031293 L12.3630513,10.1243667 C12.3630513,10.1243667 11.4801354,11.7612265 13.9235481,12.2664225 C15.7112838,12.391247 19.1595028,12.3876943 19.1595028,12.3876943 C19.1595028,12.3876943 19.9192317,12.3674824 19.7138968,12.9535263 C19.5085618,13.5395357 18.6872568,14.3074529 18.3176609,14.4907748 C17.9480298,14.6740968 17.024075,14.783952 17.024075,14.783952 C17.024075,14.783952 11.7881203,15.0147342 11.0078894,14.783952 C10.2276234,14.5531698 9.44735749,14.0043077 9.15990954,14.2064275 C9.03921083,14.2912419 8.87091955,14.62912 8.8775783,14.6863412 L8.93403754,15.1966075 C8.76753361,16.343482 5.99780675,20.8346802 5.99780675,20.8346802 C5.99780675,20.8346802 5.79247176,21.1580029 5.2380778,21.1782148 C4.88046759,21.1912526 4.42034759,21.2126718 4.13875232,21.2262959 C4.01738774,21.2321249 3.60401921,21.1998755 3.43460645,21.3211128 C3.26074285,21.4455579 3,21.9461321 3,21.9461321 C3,21.9461321 13.7592872,22.0673349 15.792065,21.9461321 C17.8248429,21.8248602 19.2005768,20.0869405 19.2005768,20.0869405 C19.2005768,20.0869405 20.1450687,18.6724124 20.4941627,17.6418085 C20.8432217,16.61117 19.7344338,16.2474234 19.7344338,16.2474234 C19.7344338,16.2474234 22.8965365,15.4997182 23.9437134,11.8420399 C24.3543834,9.84146795 22.3831815,10.0031293 22.3831815,10.0031293" id="Fill-4"></path>
        </g>
    </g>
</svg>