<svg width="53" height="28" xmlns="http://www.w3.org/2000/svg">
  <defs>
    <filter x="-24%" y="-312.2%" width="148%" height="724.5%" filterUnits="objectBoundingBox" id="a">
      <feGaussianBlur stdDeviation="2" in="SourceGraphic"/>
    </filter>
    <filter x="-23.1%" y="-768.1%" width="146.2%" height="1636.2%" filterUnits="objectBoundingBox" id="b">
      <feGaussianBlur stdDeviation="5" in="SourceGraphic"/>
    </filter>
  </defs>
  <g fill="#FAC704" fill-rule="evenodd">
    <path d="M40.01 1L64 .04A.96.96 0 0 1 65 1a.962.962 0 0 1-1 .96l-23.99-.94a.01.01 0 0 1 0-.02z" filter="url(#a)" transform="translate(-23 13)"/>
    <path d="M65 1a.985.985 0 0 1-1 .985L32.5 1.5a.5.5 0 0 1 0-1L64 .015A.985.985 0 0 1 65 1z" opacity=".8" filter="url(#b)" transform="translate(-23 13)"/>
  </g>
</svg>
