<svg width="35" height="35" xmlns="http://www.w3.org/2000/svg">
  <defs>
    <linearGradient x1="67.348%" y1="19.305%" x2="17.426%" y2="36.029%" id="a">
      <stop offset="0%"/>
      <stop stop-opacity=".723" offset="34.997%"/>
      <stop stop-opacity="0" offset="100%"/>
    </linearGradient>
  </defs>
  <g fill="none" fill-rule="evenodd">
    <path d="M29.498 15.004c.166 1.023.196 2.075.087 3.13a11.562 11.562 0 0 1-.718 2.97c-.355.921-.838 1.798-1.434 2.613a11.143 11.143 0 0 1-2.019 2.092 10.769 10.769 0 0 1-2.429 1.452 10.39 10.39 0 0 1-2.656.741c-.873.125-1.777.134-2.681.02a9.732 9.732 0 0 1-4.713-1.936 9.341 9.341 0 0 1-1.727-1.748 8.972 8.972 0 0 1-1.17-2.081 8.759 8.759 0 0 1-.563-2.242 8.575 8.575 0 0 1 .05-2.238 8.28 8.28 0 0 1 .62-2.07c.28-.621.663-1.234 1.111-1.773a7.607 7.607 0 0 1 1.486-1.363 7.29 7.29 0 0 1 1.73-.883 6.787 6.787 0 0 1 3.627-.246c.549.112 1.111.315 1.628.583a5.9 5.9 0 0 1 2.34 2.192 5.342 5.342 0 0 1 .763 2.827c-.01.44-.088.923-.226 1.358a4.44 4.44 0 0 1-1.404 2.1 4.186 4.186 0 0 1-1.008.602 3.904 3.904 0 0 1-1.096.265 3.563 3.563 0 0 1-1.071-.08 3.326 3.326 0 0 1-.936-.389 3.114 3.114 0 0 1-.737-.666 2.95 2.95 0 0 1-.435-.84 2.684 2.684 0 0 1-.086-.94c.031-.293.183-.693.306-.895.184-.29.532-.582.671-.667.236-.133.388-.175.686-.246-.292.574-.277 1.093.045 1.558.486.593 1.273.409 1.315.407.081-.007.21-.038.273-.063.1-.041.237-.123.315-.183.102-.088.222-.219.29-.319a1.96 1.96 0 0 0 .228-.464c.059-.186.096-.41.098-.588a2.517 2.517 0 0 0-.364-1.35 3.197 3.197 0 0 0-.513-.64 3.373 3.373 0 0 0-.729-.52 3.566 3.566 0 0 0-.913-.33 3.806 3.806 0 0 0-1.043-.075 4.294 4.294 0 0 0-1.102.221 4.471 4.471 0 0 0-1.067.544 4.718 4.718 0 0 0-.935.854c-.294.356-.542.75-.72 1.144-.197.437-.339.906-.41 1.362a5.666 5.666 0 0 0-.033 1.5c.058.523.19 1.053.38 1.523.205.517.483 1.013.805 1.436a6.5 6.5 0 0 0 1.21 1.227 6.8 6.8 0 0 0 1.557.902c.583.242 1.21.406 1.808.481a7.519 7.519 0 0 0 3.898-.556 8.106 8.106 0 0 0 1.802-1.075 8.113 8.113 0 0 0 1.509-1.565 8.483 8.483 0 0 0 1.083-1.97 8.763 8.763 0 0 0 .548-2.259 9.036 9.036 0 0 0-.065-2.398c-.135-.829 2.56-1.514 2.734-.446z" fill="#000"/>
    <path d="M.187 6.567a14.45 14.45 0 0 1 2.557-2.813A13.95 13.95 0 0 1 9.367.644c1.16-.208 2.364-.26 3.575-.15a13.068 13.068 0 0 1 6.45 2.373c.906.642 1.73 1.41 2.454 2.287a12.32 12.32 0 0 1 2.652 5.85c.166 1.023.196 2.075.087 3.13a11.562 11.562 0 0 1-.718 2.97c-.355.921-2.853-.306-2.586-.997a8.763 8.763 0 0 0 .548-2.259 9.036 9.036 0 0 0-.065-2.398 9.362 9.362 0 0 0-.71-2.368 9.63 9.63 0 0 0-1.346-2.165 9.92 9.92 0 0 0-1.919-1.79 10.298 10.298 0 0 0-2.385-1.264 10.639 10.639 0 0 0-2.706-.61 10.79 10.79 0 0 0-2.846.118c-.98.173-1.917.469-2.792.88a11.529 11.529 0 0 0-4.593 3.891c-.609.88-3.028-.496-2.28-1.575z" fill="url(#a)" transform="translate(5 4)"/>
  </g>
</svg>
